<svg xmlns="http://www.w3.org/2000/svg" xmlns:xlink="http://www.w3.org/1999/xlink" viewBox="0 0 230 280"><defs><style>.cls-1{fill:none;}.cls-2{clip-path:url(#clip-path);}.cls-3{fill:url(#linear-gradient);}.cls-4{fill:#e5f9ff;}.cls-5{fill:#4980a7;}.cls-6{fill:url(#linear-gradient-2);}.cls-7{fill:#a8cc30;}.cls-8{fill:url(#linear-gradient-3);}.cls-9{fill:url(#linear-gradient-4);}.cls-10{fill:#70abd5;}.cls-11{fill:url(#linear-gradient-5);}.cls-12{fill:url(#radial-gradient);}.cls-13{fill:url(#linear-gradient-6);}.cls-14{fill:url(#radial-gradient-2);}.cls-15{fill:url(#radial-gradient-3);}.cls-16{fill:url(#linear-gradient-7);}.cls-17{fill:url(#radial-gradient-4);}.cls-18{fill:#656818;}.cls-19{fill:#f1d3a0;}.cls-20{fill:url(#radial-gradient-5);}.cls-21{fill:#ab8c79;}.cls-22{fill:#e4c29a;}.cls-23{fill:#734d12;}.cls-24{fill:url(#radial-gradient-6);}.cls-25{fill:#f4dfac;}.cls-26{fill:#faf4c5;}.cls-27{fill:#a7d0fa;}.cls-28{fill:#9fc2ef;}.cls-29{fill:#fff;}.cls-30{fill:#efefef;}.cls-31{fill:#c8c8c8;}.cls-32{fill:url(#linear-gradient-8);}.cls-33{fill:#faf5cc;}.cls-34{fill:url(#radial-gradient-7);}.cls-35{fill:url(#radial-gradient-8);}.cls-36{fill:url(#radial-gradient-9);}.cls-37{fill:url(#radial-gradient-10);}.cls-38{fill:url(#radial-gradient-11);}.cls-39{fill:url(#radial-gradient-12);}.cls-40{fill:url(#radial-gradient-13);}.cls-41{fill:#f0f4ff;}.cls-42{fill:url(#radial-gradient-14);}.cls-43{fill:#e8a7b0;}.cls-44{fill:#f4ffcd;}.cls-45{fill:url(#radial-gradient-15);}.cls-46{fill:url(#radial-gradient-16);}.cls-47{fill:#e7a3aa;}.cls-48{fill:#a2ffe7;}.cls-49{fill:#9befe8;}.cls-50{fill:#9ac42f;}.cls-51{fill:url(#linear-gradient-9);}.cls-52{fill:url(#linear-gradient-10);}.cls-53{fill:url(#linear-gradient-11);}.cls-54{fill:url(#linear-gradient-12);}.cls-55{fill:url(#radial-gradient-17);}.cls-56{fill:url(#radial-gradient-18);}.cls-57{fill:url(#radial-gradient-19);}.cls-58{fill:url(#radial-gradient-20);}.cls-59{fill:url(#radial-gradient-21);}.cls-60{fill:url(#radial-gradient-22);}.cls-61{fill:url(#radial-gradient-23);}.cls-62{fill:url(#radial-gradient-24);}.cls-63{fill:url(#linear-gradient-13);}.cls-64{fill:url(#linear-gradient-14);}.cls-65{fill:url(#linear-gradient-15);}.cls-66{fill:url(#linear-gradient-16);}.cls-67{fill:url(#linear-gradient-17);}.cls-68{fill:url(#linear-gradient-18);}.cls-69{fill:url(#linear-gradient-19);}.cls-70{fill:url(#linear-gradient-20);}.cls-71{fill:url(#linear-gradient-21);}.cls-72{fill:url(#linear-gradient-22);}</style><clipPath id="clip-path"><rect class="cls-1" x="-1049" y="199" width="778" height="487"/></clipPath><linearGradient id="linear-gradient" x1="-282.03" y1="984.4" x2="-431" y2="105.64" gradientUnits="userSpaceOnUse"><stop offset="0" stop-color="#f8edd9"/><stop offset="1" stop-color="#9bc24d"/></linearGradient><linearGradient id="linear-gradient-2" x1="56.47" y1="283.31" x2="154.79" y2="224.01" xlink:href="#linear-gradient"/><linearGradient id="linear-gradient-3" x1="147.93" y1="315.78" x2="97.58" y2="18.78" xlink:href="#linear-gradient"/><linearGradient id="linear-gradient-4" x1="52.3" y1="141.24" x2="80.86" y2="128.52" gradientUnits="userSpaceOnUse"><stop offset="0" stop-color="#8dffff"/><stop offset="1" stop-color="#70abd5"/></linearGradient><linearGradient id="linear-gradient-5" x1="164.54" y1="140" x2="130.89" y2="128.45" xlink:href="#linear-gradient-4"/><radialGradient id="radial-gradient" cx="52.64" cy="208.92" r="41.66" gradientUnits="userSpaceOnUse"><stop offset="0" stop-color="#f8edd9"/><stop offset="1" stop-color="#e7a476"/></radialGradient><linearGradient id="linear-gradient-6" x1="106.8" y1="128.78" x2="104.49" y2="184.03" gradientUnits="userSpaceOnUse"><stop offset="0" stop-color="#977b55"/><stop offset="1" stop-color="#6b4d2b"/></linearGradient><radialGradient id="radial-gradient-2" cx="56.5" cy="146.15" r="42.02" xlink:href="#radial-gradient"/><radialGradient id="radial-gradient-3" cx="141.12" cy="137.78" r="57.12" xlink:href="#radial-gradient"/><linearGradient id="linear-gradient-7" x1="95.29" y1="88.3" x2="107.61" y2="142.13" gradientUnits="userSpaceOnUse"><stop offset="0" stop-color="#8dffff"/><stop offset="0.19" stop-color="#8af7fb"/><stop offset="0.49" stop-color="#82e0f0"/><stop offset="0.86" stop-color="#76bbdd"/><stop offset="1" stop-color="#70abd5"/></linearGradient><radialGradient id="radial-gradient-4" cx="104.63" cy="106.29" r="29.95" xlink:href="#radial-gradient"/><radialGradient id="radial-gradient-5" cx="104.73" cy="73.66" r="39.3" xlink:href="#radial-gradient"/><radialGradient id="radial-gradient-6" cx="126.77" cy="179.46" r="29.05" xlink:href="#radial-gradient"/><linearGradient id="linear-gradient-8" x1="999.82" y1="-2045.22" x2="995.69" y2="-2069.6" gradientTransform="translate(413.98 2343.57) rotate(-35.08)" gradientUnits="userSpaceOnUse"><stop offset="0" stop-color="#e5ab47"/><stop offset="1" stop-color="#faf498"/></linearGradient><radialGradient id="radial-gradient-7" cx="996.55" cy="-2069.14" r="20.35" gradientTransform="translate(413.98 2343.57) rotate(-35.08)" gradientUnits="userSpaceOnUse"><stop offset="0" stop-color="#f5ea41"/><stop offset="1" stop-color="#e5ab47"/></radialGradient><radialGradient id="radial-gradient-8" cx="996.55" cy="-2069.14" r="20.35" xlink:href="#radial-gradient-7"/><radialGradient id="radial-gradient-9" cx="996.55" cy="-2069.14" r="20.35" xlink:href="#radial-gradient-7"/><radialGradient id="radial-gradient-10" cx="996.55" cy="-2069.14" r="20.35" xlink:href="#radial-gradient-7"/><radialGradient id="radial-gradient-11" cx="996.55" cy="-2069.14" r="20.35" xlink:href="#radial-gradient-7"/><radialGradient id="radial-gradient-12" cx="996.55" cy="-2069.14" r="20.35" xlink:href="#radial-gradient-7"/><radialGradient id="radial-gradient-13" cx="156.07" cy="100.57" r="51.42" gradientUnits="userSpaceOnUse"><stop offset="0" stop-color="#eec7cf"/><stop offset="1" stop-color="#e07c86"/></radialGradient><radialGradient id="radial-gradient-14" cx="40.75" cy="17.18" r="38.74" xlink:href="#radial-gradient-13"/><radialGradient id="radial-gradient-15" cx="-1173.15" cy="-24.38" r="24.87" gradientTransform="matrix(0.28, 0.69, -0.75, 0.3, 502.51, 892.67)" gradientUnits="userSpaceOnUse"><stop offset="0" stop-color="#e1818a"/><stop offset="1" stop-color="#d80c3c"/></radialGradient><radialGradient id="radial-gradient-16" cx="-1173.15" cy="-24.38" r="24.87" gradientTransform="translate(1061.55 94.33) scale(0.74 0.8)" gradientUnits="userSpaceOnUse"><stop offset="0" stop-color="#e1818a"/><stop offset="1" stop-color="#ce0131"/></radialGradient><linearGradient id="linear-gradient-9" x1="66.9" y1="140.21" x2="21.15" y2="129.65" gradientUnits="userSpaceOnUse"><stop offset="0" stop-color="#fff"/><stop offset="1" stop-color="#b0c5fa"/></linearGradient><linearGradient id="linear-gradient-10" x1="69.93" y1="132.14" x2="37.11" y2="127.12" xlink:href="#linear-gradient-9"/><linearGradient id="linear-gradient-11" x1="64.28" y1="138.99" x2="44.74" y2="126.29" xlink:href="#linear-gradient"/><linearGradient id="linear-gradient-12" x1="8048.78" y1="1863.95" x2="8046.52" y2="1850.61" gradientTransform="matrix(-0.9, -0.38, -0.39, 0.92, 8136.24, 1453.71)" xlink:href="#linear-gradient-8"/><radialGradient id="radial-gradient-17" cx="8046.99" cy="1850.86" r="11.13" gradientTransform="matrix(-0.9, -0.38, -0.39, 0.92, 8136.24, 1453.71)" xlink:href="#radial-gradient-7"/><radialGradient id="radial-gradient-18" cx="8046.99" cy="1850.86" r="11.13" gradientTransform="matrix(-0.9, -0.38, -0.39, 0.92, 8136.24, 1453.71)" xlink:href="#radial-gradient-7"/><radialGradient id="radial-gradient-19" cx="8046.99" cy="1850.86" r="11.13" gradientTransform="matrix(-0.9, -0.38, -0.39, 0.92, 8136.24, 1453.71)" xlink:href="#radial-gradient-7"/><radialGradient id="radial-gradient-20" cx="8046.99" cy="1850.86" r="11.13" gradientTransform="matrix(-0.9, -0.38, -0.39, 0.92, 8136.24, 1453.71)" xlink:href="#radial-gradient-7"/><radialGradient id="radial-gradient-21" cx="8046.99" cy="1850.86" r="11.13" gradientTransform="matrix(-0.9, -0.38, -0.39, 0.92, 8136.24, 1453.71)" xlink:href="#radial-gradient-7"/><radialGradient id="radial-gradient-22" cx="8046.99" cy="1850.86" r="11.13" gradientTransform="matrix(-0.9, -0.38, -0.39, 0.92, 8136.24, 1453.71)" xlink:href="#radial-gradient-7"/><radialGradient id="radial-gradient-23" cx="8063.16" cy="9.18" r="31.59" gradientTransform="matrix(-1.06, 0, 0, 1, 8700.17, 0)" xlink:href="#radial-gradient-13"/><radialGradient id="radial-gradient-24" cx="95.06" cy="82.94" r="11.75" xlink:href="#radial-gradient-13"/><linearGradient id="linear-gradient-13" x1="69.25" y1="245.36" x2="11.2" y2="152.07" xlink:href="#linear-gradient"/><linearGradient id="linear-gradient-14" x1="161.71" y1="222.16" x2="237.38" y2="176.52" xlink:href="#linear-gradient"/><linearGradient id="linear-gradient-15" x1="141.03" y1="221.2" x2="161.5" y2="212.94" gradientUnits="userSpaceOnUse"><stop offset="0" stop-color="#b9ff7a"/><stop offset="1" stop-color="#9bc24d"/></linearGradient><linearGradient id="linear-gradient-16" x1="152.35" y1="215.64" x2="154.99" y2="208.53" xlink:href="#linear-gradient-15"/><linearGradient id="linear-gradient-17" x1="202.22" y1="143.11" x2="222.69" y2="134.85" xlink:href="#linear-gradient-15"/><linearGradient id="linear-gradient-18" x1="213.54" y1="137.55" x2="216.17" y2="130.44" xlink:href="#linear-gradient-15"/><linearGradient id="linear-gradient-19" x1="7784.14" y1="-1093.04" x2="7804.61" y2="-1101.29" gradientTransform="translate(7442.58 2728) rotate(-152.65)" xlink:href="#linear-gradient-15"/><linearGradient id="linear-gradient-20" x1="7795.46" y1="-1098.6" x2="7798.1" y2="-1105.71" gradientTransform="translate(7442.58 2728) rotate(-152.65)" xlink:href="#linear-gradient-15"/><linearGradient id="linear-gradient-21" x1="6209.11" y1="3935.81" x2="6229.58" y2="3927.55" gradientTransform="translate(7151.03 -2395.19) rotate(128.25)" xlink:href="#linear-gradient-15"/><linearGradient id="linear-gradient-22" x1="6220.43" y1="3930.25" x2="6223.07" y2="3923.14" gradientTransform="translate(7151.03 -2395.19) rotate(128.25)" xlink:href="#linear-gradient-15"/></defs><title>meditando</title><g id="Elementos"><g class="cls-2"><rect class="cls-3" x="-1116" y="203" width="1482" height="466"/></g><path class="cls-4" d="M140.41,265.14h-1.87L131,245.78a6.18,6.18,0,0,0-5.76-3.94H87.49a7.88,7.88,0,0,0-7,4.28l-9.78,19H68.27v5.78h0a2.83,2.83,0,0,0,2.82,2.48h66.36a2.93,2.93,0,0,0,2.9-3.32Z"/><path class="cls-5" d="M137.48,268.21H71.12a2.85,2.85,0,0,1-2.55-4.12l11.91-23.17a7.88,7.88,0,0,1,7-4.28h37.75a6.18,6.18,0,0,1,5.76,4l9.21,23.64A2.93,2.93,0,0,1,137.48,268.21Z"/><polygon class="cls-6" points="137.05 261.48 71.63 261.48 82.23 241 128.89 241 137.05 261.48"/><path class="cls-7" d="M177.28,45.52c-3.31,4.42-4.18,11.2-.43,15.26,3.17,3.44,8.7,3.85,13,2a16.45,16.45,0,0,0,9.87-14.19C200.44,31.09,184.63,35.68,177.28,45.52Z"/><path class="cls-8" d="M125.68,240.11c-.7-19.33,10.47-38.7,28.75-45,7.76-2.69,16.07-3.23,24.1-4.91s16.26-4.79,21.34-11.23,5.73-16.91-.45-22.31S183,152.26,178.19,145.8c-5.09-6.83-.1-16.81,6.62-22.05s15.22-8.42,20.35-15.23A21.86,21.86,0,0,0,192.9,74.13c-6.5-1.59-13.84-.26-19.56-3.74-6.77-4.11-8.41-13.53-6.49-21.22s6.52-14.38,9.81-21.6,5.17,4.14,1.54-2.9c-4.36-8.45-15.42-11.53-24.74-9.67S136.1,2.53,128.26,7.9s-16.18,10.75-25.62,11.86c-7.38.87-14.8-1-22.22-1.07s-15.71,2.07-19.5,8.46c-5.07,8.52-.49,21.58-8.12,27.92C46.54,60.28,37,56.66,29.1,58.71c-11.37,3-16.21,17.68-12.48,28.82s13.34,19.16,23,25.92c4.55,3.2,9.33,6.38,12.38,11s3.91,11.27.42,15.61c-6.21,7.72-20.3,3-27.17,10.17-4.31,4.48-3.7,12.11-.13,17.2s9.37,8.11,15.12,10.46S52,182.2,57,185.84c7.87,5.69,20.92,15.47,22.77,25s5.14,25.92,4.56,35.61c12.27,9.07,21.4,8.08,36,3.67C125,248.72,125.85,245,125.68,240.11Z"/><path class="cls-9" d="M85.17,108S77,140.92,68.05,141.5l-9,.58v7.79a33.54,33.54,0,0,0,15.31,0c7.8-2,14-21.33,14-21.33Z"/><path class="cls-10" d="M86.76,116.45a138.24,138.24,0,0,1-5.38,19.8,16.25,16.25,0,0,1-3.23,6.07c-1.6,1.67-4.13,2.68-6.3,1.87L73.42,147a24,24,0,0,1-14.33,1.3v1.54a33.54,33.54,0,0,0,15.31,0c7.8-2,15.28-23.65,15.28-23.65Z"/><path class="cls-11" d="M124.41,106.32s8.38,34.6,17.33,35.18l8.95.58v7.79a33.49,33.49,0,0,1-15.3,0c-7.8-2-14-21.33-14-21.33Z"/><path class="cls-12" d="M90.41,180.13a18,18,0,0,1,2.28-3.91,20.5,20.5,0,0,1,3.51-3.58,9.23,9.23,0,0,1,4.3-2.28c2.93-.38,11.56,2.26,11.56,2.26l-2.4,5.26s-5.36-2.27-7.09-1.84-5.2,9-7.51,9.39c-1.31.24-4.29-.69-4.11-2.27a.63.63,0,0,1-1,.11C89.22,182.67,90.15,180.76,90.41,180.13Z"/><path class="cls-13" d="M122.63,154.86v-4.09H87.4v4.09c-13.66-1.2-37-.53-35.34,18.33,2.31,26.57,48.81,4.62,48.81,4.62L98,171.46s-25.41,4-28.3,1.73,31.19-2.78,31.19-2.78h8.29s34.08.47,31.19,2.78-28.3-1.73-28.3-1.73l-2.89,6.35s46.5,21.95,48.81-4.62C159.61,154.33,136.3,153.66,122.63,154.86Z"/><path class="cls-14" d="M50.52,142.73s.1-.54-.44-4c-.68-4.39-4.16-4.2-4-2.92s3.64,7.33,0,7-5.66-6.23-7-6.41-1.64,1.18-1.4,2.54.19,0-.61,0-2.8,4.65-1.7,5.87,3.65,4,7,4.15a25.47,25.47,0,0,0,6.77-.73l9.93,1.22v-6.65Z"/><path class="cls-15" d="M159.27,142.73c-.05,0-.1-.54.44-4,.68-4.39,4.16-4.2,4-2.92s-3.64,7.33,0,7,5.66-6.23,6.94-6.41,1.65,1.18,1.41,2.54-.19,0,.61,0,2.8,4.65,1.7,5.87-3.66,4-6.95,4.15a25.47,25.47,0,0,1-6.77-.73l-9.94,1.22v-6.65Z"/><path class="cls-1" d="M124.42,120.66c-.18,1.16-.37,2.38-.56,3.64A12.55,12.55,0,0,0,124.42,120.66Z"/><path class="cls-10" d="M137.84,147l.52-1.91c-1.78,1.28-4.41.6-6-.92a14.39,14.39,0,0,1-3.08-5.74l-6.66-19-1.25,9.15s6.21,19.31,14,21.33a33.49,33.49,0,0,0,15.3,0v-3.16A29.18,29.18,0,0,1,137.84,147Z"/><path class="cls-16" d="M125.66,112.61c0-.21,0-.42,0-.63-.17-9.23-12.07-16.66-21.34-16.66l1.57.07c-9.27,0-21.39,7.36-21.56,16.59,0,.21,0,.42,0,.63l5.71,16.62a24.52,24.52,0,0,1-1.48,19.38c-1.71,3.27-3.23,6.09-3.23,6.09-.36,1.55,3,2.43,5.27,2.43h28.75c3.47,0,5.49.25,5.49-3.22L121,146.24a17.59,17.59,0,0,1-1.3-12.7C121.93,125.31,125.66,112.61,125.66,112.61Z"/><path class="cls-10" d="M121.15,127.73c-1.46.79-7.44.79-9.09.81-7.63.1-11,.22-18.64.32,4.68.53,9.43,1.08,13.84,2.74s8.54,4.57,10.69,8.77,1.92,9.78-1.32,13.21a12.85,12.85,0,0,1-7.34,3.55h10.1c3.47,0,5.49.25,5.49-3.22L118,140.37a86.37,86.37,0,0,1,4.32-16.07C121.79,125.75,122.54,127,121.15,127.73Z"/><path class="cls-1" d="M86,123.31a12.81,12.81,0,0,0,1,2.86L85.62,119A19.43,19.43,0,0,0,86,123.31Z"/><rect class="cls-17" x="99.96" y="82.61" width="10.11" height="17.91" rx="4.24"/><path class="cls-18" d="M130.86,52.53c2,2,2.76,5,2.79,7.87a81.4,81.4,0,0,1-.86,8.52,15.35,15.35,0,0,0,1.07,8.39c1.28,2.55,4,4.54,6.86,4.17a29.32,29.32,0,0,1-8.79,2.15c-3,.1-6.25-.89-8.14-3.25s-2.1-5.23-2.25-8.06A108,108,0,0,1,122,54.7c.21-2,.35-3.32,2.43-3.89A6.71,6.71,0,0,1,130.86,52.53Z"/><circle class="cls-19" cx="124.11" cy="66.51" r="3.83"/><circle class="cls-19" cx="86.6" cy="68.53" r="3.83"/><ellipse class="cls-18" cx="104.22" cy="56.09" rx="20.18" ry="21.71"/><rect class="cls-20" x="87.4" y="40.45" width="35.23" height="48.52" rx="14.79"/><path class="cls-21" d="M93.4,68.93a5.62,5.62,0,0,0,7.53,1.32c.47-.3,0-1-.44-.75A4.77,4.77,0,0,1,94,68.32c-.34-.44-1,.18-.61.61Z"/><path class="cls-21" d="M116.63,68.93a5.62,5.62,0,0,1-7.53,1.32c-.47-.3,0-1,.44-.75A4.77,4.77,0,0,0,116,68.32c.34-.44,1,.18.61.61Z"/><path class="cls-18" d="M105.82,55.3a25.23,25.23,0,0,1-14.93,5.48c-1.91.06-4-.18-5.34-1.53A6.7,6.7,0,0,1,84,54.69,17.8,17.8,0,0,1,113.1,40.25c1.83,1.5,1.18,2.63.37,4.67a25.41,25.41,0,0,1-7.65,10.38Z"/><path class="cls-18" d="M122.72,64.19a29.58,29.58,0,0,0-.59-14,15.49,15.49,0,0,0-3-6c-1.11-1.26-3.31-3-5.13-2.87s-.65,3.61-.39,4.83a37.95,37.95,0,0,0,9.14,18Z"/><path class="cls-22" d="M105,70s-2,8.38,0,8.28S105,70,105,70Z"/><path class="cls-23" d="M144.67,169.05a4.58,4.58,0,0,0-2.4-4.06,12.86,12.86,0,0,0-4.74-1.38,210,210,0,0,0-67.17.65c-2.63.45-5.78,1.45-6.3,4.06-.41,2.06,1.24,4.09,3.22,4.82a8.81,8.81,0,0,0,3.31.44,2.43,2.43,0,0,1-.91-.39c-2.89-2.31,31.19-2.78,31.19-2.78h8.29s30.16.42,31.33,2.39l.2,0C142.62,172.44,144.5,171,144.67,169.05Z"/><path class="cls-24" d="M119.63,179a18,18,0,0,0-2.28-3.91,20.51,20.51,0,0,0-3.51-3.58,9,9,0,0,0-4.3-2.28c-2.94-.39-11.56,2.25-11.56,2.25l2.39,5.26s5.37-2.27,7.1-1.83,5.2,9,7.51,9.38c1.31.25,4.29-.69,4.1-2.27a.65.65,0,0,0,1,.11C120.81,181.51,119.89,179.6,119.63,179Z"/><path class="cls-25" d="M148.71,42.15l-22.16-9.42a4.87,4.87,0,0,1-2.72-6l9.41-8.51a4.87,4.87,0,0,1,6.53-3l26.76-8.64a4.88,4.88,0,0,1,2.41,6.76l-14,26.57A4.87,4.87,0,0,1,148.71,42.15Z"/><path class="cls-26" d="M148.53,40.9l-21-8.9A4.6,4.6,0,0,1,125,26.31l8.89-7a4.62,4.62,0,0,1,6.18-2.8l25.3-9.25a4.6,4.6,0,0,1,2.28,6.39L154.4,38.81A4.6,4.6,0,0,1,148.53,40.9Z"/><path class="cls-27" d="M157.89,13c-1.89,4.43-9.62,12.66-14,10.78s-3.89,6.84-2,2.4a8.73,8.73,0,0,1,11.44-4.62C157.7,23.46,159.77,8.58,157.89,13Z"/><path class="cls-28" d="M157.32,12.63c-1.79,4.21-9,12.06-13.13,10.32s-3.48,7.6-1.69,3.39a8.15,8.15,0,0,1,10.64-4.47C157.23,23.61,159.1,8.43,157.32,12.63Z"/><path class="cls-29" d="M155.37,12a6,6,0,1,1-11.06-4.7c1.29-3.06,4.82,15.52,7.88,16.81S156.67,8.94,155.37,12Z"/><path class="cls-30" d="M151.82,25c2.9,1.24,4.33-15.51,3.35-12.56.07-.14.14-.28.2-.43,1.3-3.06-.12,13.41-3.18,12.11S145.6,4.24,144.31,7.3a4.13,4.13,0,0,0-.17.45C145.58,5,148.91,23.76,151.82,25Z"/><path class="cls-29" d="M147.49,15.18a6,6,0,0,0,7.68-2.75c1-2.95-.45,13.8-3.35,12.56s-6.24-20-7.68-17.24A6,6,0,0,0,147.49,15.18Z"/><polygon class="cls-31" points="151.38 6.63 150.94 26.44 151.97 24.02 152.41 24.21 151.38 6.63"/><rect class="cls-31" x="152.16" y="25.5" width="1.39" height="0.48" transform="translate(41.79 133.86) rotate(-53.79)"/><polygon class="cls-31" points="153.7 7.69 153.34 7.37 154.33 26.28 154.68 6.6 153.7 7.69"/><rect class="cls-31" x="154.34" y="8.03" width="1.14" height="0.48" transform="translate(24.06 91.6) rotate(-35.55)"/><rect class="cls-31" x="154.74" y="9.45" width="0.67" height="0.48" transform="translate(0.44 24.86) rotate(-9.18)"/><rect class="cls-31" x="149.82" y="24.5" width="1.39" height="0.48" transform="translate(100.54 168.86) rotate(-80.21)"/><rect class="cls-31" x="148.07" y="24.54" width="1.47" height="0.48" transform="translate(113.49 171.44) rotate(-85.91)"/><rect class="cls-31" x="147.02" y="24.44" width="0.48" height="1.14" transform="translate(-2.08 21.91) rotate(-8.45)"/><rect class="cls-31" x="145.89" y="25.55" width="0.48" height="0.67" transform="translate(11.38 88.07) rotate(-34.82)"/><path class="cls-25" d="M129.49,19.19s-4.3,7.13-3.38,9.51S132,32.36,132,32.36A24.93,24.93,0,0,1,130.13,26C129.58,22.3,131,17.09,129.49,19.19Z"/><path class="cls-25" d="M130.4,17.9a.86.86,0,0,0,.28-.29,1.91,1.91,0,0,0,.28-.83.67.67,0,0,0-.29-.71.52.52,0,0,0-.59.22,1.28,1.28,0,0,0-.18.64C129.88,17.23,129.71,18.3,130.4,17.9Z"/><path class="cls-32" d="M54.23,97.33a21.17,21.17,0,0,0,5.16-29.51L24.72,92.17A21.17,21.17,0,0,0,54.23,97.33Z"/><path class="cls-33" d="M52.71,95.17a18.55,18.55,0,0,0,4.52-25.83L26.88,90.65A18.55,18.55,0,0,0,52.71,95.17Z"/><path class="cls-33" d="M52.71,95.17a18.55,18.55,0,0,0,4.52-25.83L26.88,90.65A18.55,18.55,0,0,0,52.71,95.17Z"/><path class="cls-34" d="M59.24,84.68a18.17,18.17,0,0,0,.58-3.36A1.8,1.8,0,0,0,58,79.41l-14.5.33L56,86.15A2.3,2.3,0,0,0,59.24,84.68Z"/><path class="cls-35" d="M37.4,97.19a17.93,17.93,0,0,0,4.67.62,1.67,1.67,0,0,0,1.65-1.89l-1.92-15L36.33,95.06A1.61,1.61,0,0,0,37.4,97.19Z"/><path class="cls-36" d="M54.19,93a17.7,17.7,0,0,0,2.46-2.82,2.06,2.06,0,0,0-.75-3L43.08,80.62l8.51,12.12A1.73,1.73,0,0,0,54.19,93Z"/><path class="cls-37" d="M47.75,96.88a19,19,0,0,0,2.55-1.09,1.64,1.64,0,0,0,.58-2.39l-8-11.34,1.64,12.78A2.46,2.46,0,0,0,47.75,96.88Z"/><path class="cls-38" d="M28.63,91.71a17.68,17.68,0,0,0,4.45,3.68,1.7,1.7,0,0,0,2.43-.87l5.27-13.63L29,89.2A1.7,1.7,0,0,0,28.63,91.71Z"/><path class="cls-39" d="M54.79,71.05l-11,7.72,13.59-.31a2.1,2.1,0,0,0,2-2.6,18,18,0,0,0-1.52-4.1A2.11,2.11,0,0,0,54.79,71.05Z"/><path class="cls-40" d="M198.06,129.79a39.37,39.37,0,0,1-14.3-11.08c-2.11-2.61-3.95-5.71-3.89-9.07s2.68-6.84,6-6.76a6.79,6.79,0,0,1,5.05,3,20.13,20.13,0,0,1,2.55,5.45c.51-3.69,1.38-7.61,3.55-10.64s6.47-4.87,9.73-3.08c2.65,1.46,3.76,4.83,3.43,7.83s-1.8,5.74-3.25,8.39C204.1,119,200.92,124.57,198.06,129.79Z"/><polygon class="cls-41" points="52.86 14.02 73.88 9.14 73.88 52.51 61.41 53.73 52.86 14.02"/><path class="cls-42" d="M54.82,16.67l17.82-3.74s-.36,20.61,0,26.79c.14,2.44.17,4.47.15,6a4.51,4.51,0,0,1-3.59,4.37l-2.49.53a4.53,4.53,0,0,1-5.35-3.48Z"/><circle class="cls-43" cx="66.61" cy="36.36" r="1.46" transform="translate(-4.15 8.95) rotate(-7.45)"/><path class="cls-43" d="M65.15,29a.89.89,0,1,1-.89-.89A.89.89,0,0,1,65.15,29Z"/><circle class="cls-43" cx="66.61" cy="23.08" r="1.46"/><polygon class="cls-44" points="64.26 14.69 67.42 14.02 67.42 23.95 75.13 21.83 73.88 19.04 65.15 21.98 64.26 14.69"/><path class="cls-7" d="M195.42,69.37A3.23,3.23,0,0,1,196,68a1,1,0,0,1,1.24-.31c.61.42.34,1.44-.06,2.08a3.74,3.74,0,0,1,3.63,1.2c-.06-.06-4.56,2.2-5.87,1-1.12-1-1-3.51-2.08-4.83A2.78,2.78,0,0,1,195.42,69.37Z"/><ellipse class="cls-45" cx="192.85" cy="80.93" rx="10.62" ry="11.37" transform="translate(46.19 230.03) rotate(-68.24)"/><path class="cls-46" d="M202.76,76.26a10.26,10.26,0,0,1,.09,3.79c-1,5.81-6.74,9.54-12.89,8.35a11.92,11.92,0,0,1-8.15-5.84,11.71,11.71,0,0,0,9.3,8.88c6.15,1.19,11.92-2.55,12.88-8.35A10.47,10.47,0,0,0,202.76,76.26Z"/><path class="cls-47" d="M188,72.68c-1,.84-1.41,1.91.16,2.09a3.81,3.81,0,0,0,1.41-.21,3.93,3.93,0,0,0,1.22-.5,1.46,1.46,0,0,0,.63-1.18C191.38,70.94,189.26,71.62,188,72.68Z"/><path class="cls-47" d="M186.22,75.49v0a.94.94,0,0,1-.57,1.11.85.85,0,0,1-1-.62A.83.83,0,1,1,186.22,75.49Z"/><rect class="cls-29" x="159.06" y="112.5" width="16.65" height="30.53" rx="2.34"/><rect class="cls-5" x="158.05" y="112.5" width="16.65" height="30.53" rx="2.34"/><rect class="cls-48" x="159.06" y="115.74" width="14.66" height="23.54"/><polygon class="cls-49" points="159.06 115.74 173.72 139.28 159.06 139.28 159.06 115.74"/><rect class="cls-29" x="160.22" y="119.71" width="9.89" height="1.52" rx="0.64"/><rect class="cls-29" x="160.22" y="122.31" width="9.89" height="1.52" rx="0.64"/><rect class="cls-29" x="160.22" y="124.91" width="6.17" height="1.52" rx="0.64"/><rect class="cls-50" x="159.06" y="115.74" width="14.66" height="2.74"/><rect class="cls-29" x="160.22" y="129.82" width="7.13" height="7.13"/><rect class="cls-29" x="162.82" y="114.01" width="5.78" height="0.65" rx="0.27"/><circle class="cls-29" cx="165.71" cy="141.1" r="1.15"/><rect class="cls-5" x="174.92" y="119.71" width="0.61" height="5.2" rx="0.25"/><rect class="cls-5" x="174.92" y="125.08" width="0.61" height="1.46" rx="0.25"/><path class="cls-51" d="M30.79,126.53H57.36a0,0,0,0,1,0,0v7.94a11.15,11.15,0,0,1-11.15,11.15H41.94a11.15,11.15,0,0,1-11.15-11.15v-7.94A0,0,0,0,1,30.79,126.53Z"/><rect class="cls-52" x="29.64" y="126.53" width="28.69" height="3.28" rx="1.38"/><path class="cls-53" d="M32.24,126.53H54.76s-.77-3.37-2.12-3.27-1.25,2-1.25,2-1.73-3.18-3.85-3.18-2.31,3-2.31,3-1.15-4-3.27-4-2.41,4.33-2.41,4.33-2.21-4.33-4.33-3.56-1.54,3.56-1.54,3.56-1.06-.77-1.83-.48S32.24,126.53,32.24,126.53Z"/><path class="cls-54" d="M142.88,104.41a11.47,11.47,0,0,1-6-15.09l20.93,8.83A11.47,11.47,0,0,1,142.88,104.41Z"/><path class="cls-33" d="M143.44,103.08a10,10,0,0,1-5.21-13.21l18.32,7.73A10.06,10.06,0,0,1,143.44,103.08Z"/><path class="cls-33" d="M143.44,103.08a10,10,0,0,1-5.21-13.21l18.32,7.73A10.06,10.06,0,0,1,143.44,103.08Z"/><path class="cls-55" d="M138.85,98.28a9.53,9.53,0,0,1-.67-1.73,1,1,0,0,1,.75-1.23l7.68-1.55-5.88,4.9A1.23,1.23,0,0,1,138.85,98.28Z"/><path class="cls-56" d="M151.73,102.33a9.84,9.84,0,0,1-2.39.89.89.89,0,0,1-1.08-.81l-.64-8.21,4.44,6.87A.89.89,0,0,1,151.73,102.33Z"/><path class="cls-57" d="M142.43,102.12a9.68,9.68,0,0,1-1.61-1.21,1.13,1.13,0,0,1,.07-1.69l6-5-3.15,7.46A.93.93,0,0,1,142.43,102.12Z"/><path class="cls-58" d="M146.24,103.4a9.39,9.39,0,0,1-1.46-.28.88.88,0,0,1-.57-1.2l2.95-7,.54,7A1.35,1.35,0,0,1,146.24,103.4Z"/><path class="cls-59" d="M155.74,98.37a9.75,9.75,0,0,1-1.94,2.49.9.9,0,0,1-1.37-.17l-4.27-6.63,7.14,3A.92.92,0,0,1,155.74,98.37Z"/><path class="cls-60" d="M139.69,90.49l6.65,2.8-7.19,1.45a1.12,1.12,0,0,1-1.34-1.14,9.71,9.71,0,0,1,.35-2.37A1.14,1.14,0,0,1,139.69,90.49Z"/><path class="cls-61" d="M99.19,27.13a25.83,25.83,0,0,0,9.34-6.8c1.38-1.61,2.58-3.52,2.54-5.58a4.2,4.2,0,0,0-3.95-4.15,4.47,4.47,0,0,0-3.29,1.81,11.68,11.68,0,0,0-1.67,3.35,14,14,0,0,0-2.32-6.53c-1.42-1.86-4.23-3-6.36-1.9a4.76,4.76,0,0,0-2.24,4.81,13.67,13.67,0,0,0,2.13,5.16C95.24,20.51,97.32,23.92,99.19,27.13Z"/><path class="cls-62" d="M101.14,82.61h7.76s-1.57,2.89-4.32,2.89C102.64,85.5,101.14,82.61,101.14,82.61Z"/><path class="cls-63" d="M61.9,212.77c-1.1-5.38-3.43-10.65-7.46-14.37s-9.94-5.66-15.2-4.08-9.3,7.11-8.36,12.51c.81,4.62,4.77,8.08,9,10.15s8.85,3.16,13,5.29c4.81,2.47,6.55,5.78,8.87,10.23C64.92,228.07,62.9,217.62,61.9,212.77Z"/><path class="cls-64" d="M199.59,190.6c3.39-3.06,7-7,11.55-6.41,4.23.57,6.87,5.2,7,9.47.27,6.79-4.18,13.27-10.22,16.39s-13.35,3.18-19.84,1.19-12.27-5.87-17.41-10.33C176.37,205.83,195.71,194.1,199.59,190.6Z"/><rect class="cls-5" x="94.92" y="269.95" width="14.25" height="2.12" rx="0.89"/><ellipse class="cls-4" cx="102.04" cy="264.85" rx="4.77" ry="1.81"/><path class="cls-65" d="M163.79,218.53l-7.11-2.48c-3.32-1.16-6.7-2.33-10.21-2.35a15.81,15.81,0,0,0-6,1.12C147.25,220.62,155.87,222.57,163.79,218.53Z"/><path class="cls-66" d="M156.68,216.05l7.11,2.48.29-.15a14.18,14.18,0,0,0-24-4l.45.4a15.81,15.81,0,0,1,6-1.12C150,213.72,153.36,214.89,156.68,216.05Z"/><path class="cls-67" d="M225,140.43,217.86,138c-3.31-1.16-6.69-2.32-10.2-2.35a16.21,16.21,0,0,0-6,1.12C208.44,142.53,217.06,144.48,225,140.43Z"/><path class="cls-68" d="M217.86,138l7.12,2.48.28-.14a14.18,14.18,0,0,0-24-4l.46.39a16.21,16.21,0,0,1,6-1.12C211.17,135.63,214.55,136.79,217.86,138Z"/><path class="cls-69" d="M5.13,114.72c1.72,1.82,3.45,3.64,5.17,5.47,2.41,2.55,4.88,5.14,8,6.77a16,16,0,0,0,5.81,1.74C20.78,120.45,14,114.76,5.13,114.72Z"/><path class="cls-70" d="M10.3,120.19c-1.72-1.83-3.45-3.65-5.17-5.47H4.8a14.49,14.49,0,0,0,5.64,12.81,14.47,14.47,0,0,0,13.88,1.75l-.22-.57A16,16,0,0,1,18.29,127C15.18,125.33,12.71,122.74,10.3,120.19Z"/><path class="cls-71" d="M204.19,63.69l6.36-4c2.95-1.89,6-3.82,8.16-6.56a16.1,16.1,0,0,0,2.81-5.38C212.79,49.41,205.92,55,204.19,63.69Z"/><path class="cls-72" d="M210.55,59.65l-6.36,4-.06.32a14.19,14.19,0,0,0,18-16.41l-.59.11a16.1,16.1,0,0,1-2.81,5.38C216.52,55.83,213.5,57.76,210.55,59.65Z"/></g></svg>